<?xml version="1.0" encoding="UTF-8"?>
<svg version="1.1" xmlns="http://www.w3.org/2000/svg" width="600" height="600">
<path d="M0 0 C198 0 396 0 600 0 C600 33 600 66 600 100 C402 100 204 100 0 100 C0 67 0 34 0 0 Z " fill="#17B175" transform="translate(0,250)"/>
<path d="M0 0 C198 0 396 0 600 0 C600 71.61290323 600 71.61290323 586.25 86.25 C572.36905501 99.2896756 556.99672262 100.59269466 538.89648438 100.50793457 C536.74977954 100.51254769 534.60307786 100.51890336 532.45638275 100.52684355 C526.57775739 100.54350336 520.69939261 100.53530557 514.82076645 100.52289867 C508.47302253 100.51383687 502.12532296 100.52782354 495.77758789 100.53881836 C484.06811794 100.55556931 472.35874042 100.5541288 460.649266 100.54317249 C449.83086574 100.53309995 439.01249579 100.53048826 428.1940918 100.53526306 C427.47575784 100.5355686 426.75742389 100.53587414 426.01732224 100.53618894 C423.10118029 100.53743435 420.18503835 100.53870795 417.26889643 100.540028 C389.92773383 100.55225687 362.58662392 100.54118147 335.24546945 100.51964041 C310.96830558 100.50065877 286.69122564 100.50235731 262.4140625 100.52148438 C235.12208011 100.54291496 207.83014424 100.55138951 180.5381546 100.53903532 C177.62740581 100.5377525 174.71665701 100.53650114 171.8059082 100.53526306 C171.08923703 100.53494675 170.37256586 100.53463044 169.63417739 100.53430455 C158.82405794 100.52975963 148.01397219 100.53506647 137.20385742 100.54518127 C124.90905286 100.55662809 112.61436149 100.55335393 100.31956673 100.5320583 C94.04771427 100.52155262 87.77603207 100.51741811 81.50418091 100.53065491 C75.76019997 100.54259421 70.01654672 100.53599041 64.27259541 100.5147447 C62.19738748 100.51028522 60.12215175 100.51253012 58.04696178 100.52224785 C41.03301763 100.59579474 26.66992216 98.38689658 13.75 86.25 C-8.18625142 62.89850656 0 30.13089661 0 0 Z " fill="#17B175" transform="translate(0,500)"/>
<path d="M0 0 C2.14670484 -0.00461312 4.29340651 -0.01096879 6.44010162 -0.01890898 C12.31872698 -0.03556879 18.19709177 -0.027371 24.07571793 -0.0149641 C30.42346185 -0.0059023 36.77116141 -0.01988897 43.11889648 -0.03088379 C54.82836644 -0.04763474 66.53774395 -0.04619423 78.24721837 -0.03523792 C89.06561864 -0.02516538 99.88398858 -0.02255369 110.70239258 -0.02732849 C111.42072653 -0.02763403 112.13906048 -0.02793957 112.87916213 -0.02825437 C115.79530409 -0.02949978 118.71144602 -0.03077338 121.62758794 -0.03209343 C148.96875054 -0.0443223 176.30986046 -0.0332469 203.65101492 -0.01170584 C227.9281788 0.0072758 252.20525874 0.00557726 276.48242188 -0.0135498 C303.77440427 -0.03498039 331.06634013 -0.04345494 358.35832977 -0.03110075 C361.26907856 -0.02981793 364.17982736 -0.02856657 367.09057617 -0.02732849 C367.80724734 -0.02701218 368.52391851 -0.02669587 369.26230699 -0.02636998 C380.07242643 -0.02182506 390.88251218 -0.0271319 401.69262695 -0.0372467 C413.98743151 -0.04869352 426.28212288 -0.04541936 438.57691765 -0.02412373 C444.8487701 -0.01361805 451.12045231 -0.00948354 457.39230347 -0.02272034 C463.13628441 -0.03465964 468.87993766 -0.02805584 474.62388897 -0.00681013 C476.69909689 -0.00235065 478.77433263 -0.00459555 480.84952259 -0.01431328 C497.86346674 -0.08786017 512.22656221 2.12103799 525.14648438 14.25793457 C547.08273579 37.60942802 538.89648438 70.37703796 538.89648438 100.50793457 C340.89648438 100.50793457 142.89648438 100.50793457 -61.10351562 100.50793457 C-61.10351562 28.89503134 -61.10351562 28.89503134 -47.35351562 14.25793457 C-33.47257063 1.21825897 -18.10023824 -0.08476009 0 0 Z " fill="#17B175" transform="translate(61.103515625,-0.5079345703125)"/>
</svg>
