<?xml version="1.0" encoding="UTF-8"?>
<svg version="1.1" xmlns="http://www.w3.org/2000/svg" width="200" height="200">
<path d="M0 0 C20.39836047 16.06596532 34.24089937 37.4093906 38.08984375 63.43359375 C39.94603023 94.70201516 33.91962326 119.86673329 12.90234375 143.62109375 C-1.79660738 159.49896657 -24.15147843 171.32002285 -45.8918457 172.6105957 C-77.01047933 173.21952819 -101.23344116 167.48690514 -124.59375 145.86108398 C-141.78950652 129.14838645 -151.83270153 105.65767342 -152.20288086 81.81347656 C-152.3579231 52.86460155 -144.41875634 29.38262475 -123.91015625 8.28125 C-91.04087572 -23.87964086 -36.80037867 -26.97481403 0 0 Z M-111.91015625 13.43359375 C-112.80347656 14.11615234 -112.80347656 14.11615234 -113.71484375 14.8125 C-127.57951874 25.51449567 -137.76115473 44.99774096 -140.62890625 62.06982422 C-143.31884564 84.67745715 -139.81897078 106.47894179 -126.82421875 125.484375 C-124.92673649 127.87985548 -122.95293083 130.16192476 -120.91015625 132.43359375 C-120.45511719 133.02914062 -120.00007813 133.6246875 -119.53125 134.23828125 C-108.46718196 148.5720291 -88.91690515 158.30928013 -71.27294922 161.15234375 C-49.07395564 163.7947534 -27.44396987 160.1241651 -8.828125 147.3125 C-6.44431172 145.42188947 -4.1716337 143.46770543 -1.91015625 141.43359375 C-0.94207031 140.65886719 0.02601563 139.88414062 1.0234375 139.0859375 C15.20002543 127.28068983 24.92527234 107.61824835 27.08984375 89.43359375 C28.85397914 67.00781021 25.25849132 44.88102171 10.96484375 26.80859375 C9.68305269 25.34157277 8.392453 23.88216133 7.08984375 22.43359375 C6.63480469 21.83804688 6.17976562 21.2425 5.7109375 20.62890625 C-4.99105817 6.76423126 -24.47430346 -3.41740473 -41.54638672 -6.28515625 C-67.30269315 -9.3497364 -92.31190959 -4.18992464 -111.91015625 13.43359375 Z " fill="#000000" transform="translate(156.91015625,22.56640625)"/>
<path d="M0 0 C0.69696991 -0.00671722 1.39393982 -0.01343445 2.11203003 -0.02035522 C4.39596867 -0.03921529 6.67961157 -0.04325332 8.96362305 -0.04541016 C10.56634131 -0.05184661 12.16905842 -0.05857558 13.77177429 -0.06558228 C17.12473268 -0.07752521 20.47758827 -0.0812662 23.83056641 -0.08007812 C28.10403866 -0.07987515 32.37684433 -0.10716824 36.65015888 -0.14162254 C39.95925356 -0.16397985 43.26819008 -0.16791297 46.57735252 -0.16685867 C48.15165693 -0.16920171 49.72596656 -0.17795122 51.30019569 -0.19352341 C70.54261075 -0.36604913 70.54261075 -0.36604913 77.33222961 5.80874634 C86.64435291 16.54911817 81.6628418 22.6091566 81.6628418 41.29052734 C46.6828418 41.29052734 11.7028418 41.29052734 -24.3371582 41.29052734 C-24.3371582 13.29052734 -24.3371582 13.29052734 -20.3371582 6.29052734 C-14.21211933 1.25438427 -7.78349119 0.04742765 0 0 Z " fill="#000000" transform="translate(71.337158203125,104.70947265625)"/>
<path d="M0 0 C6.7251799 5.95902016 9.43217579 13.32175795 10.3125 22.125 C9.57784681 31.23469959 5.97624416 39.02438884 -1 45 C-7.94264586 49.46405641 -14.81112384 50.83416099 -23 50 C-30.6727021 48.00486944 -37.31505516 44.40749387 -41.50390625 37.53125 C-45.30504041 30.16722941 -47.39431138 23.54537556 -45.31640625 15.28125 C-42.48487695 6.72791669 -38.99715696 1.34045208 -30.9375 -2.875 C-20.44492266 -7.88093737 -9.55287098 -6.50265603 0 0 Z " fill="#000000" transform="translate(118,50)"/>
</svg>
