<?xml version="1.0" encoding="UTF-8"?>
<svg version="1.1" xmlns="http://www.w3.org/2000/svg" width="600" height="600">
<path d="M0 0 C1.11785889 -0.00315216 2.23571777 -0.00630432 3.38745117 -0.009552 C5.21240112 -0.00651566 5.21240112 -0.00651566 7.07421875 -0.00341797 C8.31341064 -0.00437469 9.55260254 -0.00533142 10.8293457 -0.00631714 C13.45560156 -0.00699921 16.08176508 -0.00564085 18.70800781 -0.00097656 C22.08100589 0.00472073 25.4539244 0.00144151 28.82691956 -0.00454903 C32.03435552 -0.00902317 35.24178175 -0.00589429 38.44921875 -0.00341797 C39.66585205 -0.0054422 40.88248535 -0.00746643 42.13598633 -0.009552 C43.81277466 -0.00482376 43.81277466 -0.00482376 45.5234375 0 C46.51303467 0.00079559 47.50263184 0.00159119 48.5222168 0.00241089 C50.76171875 0.12939453 50.76171875 0.12939453 51.76171875 1.12939453 C54.09782392 1.53860311 56.4209973 1.89337188 58.76953125 2.21533203 C59.48720673 2.31778229 60.2048822 2.42023254 60.94430542 2.52578735 C64.01490304 2.96399375 67.08681362 3.39265193 70.15869141 3.82177734 C98.27335879 7.76748126 98.27335879 7.76748126 107.96484375 12.02783203 C112.37731745 13.76570575 116.94576451 14.97382396 121.52294922 16.203125 C125.86794683 17.41395942 129.684163 19.001008 133.67724609 21.09033203 C137.42655543 22.95927798 141.34825535 24.39431803 145.26171875 25.87939453 C146.08414062 26.19521484 146.9065625 26.51103516 147.75390625 26.83642578 C149.75513621 27.6043396 151.75823316 28.36738505 153.76171875 29.12939453 C153.76171875 29.78939453 153.76171875 30.44939453 153.76171875 31.12939453 C154.60992187 31.39494141 155.458125 31.66048828 156.33203125 31.93408203 C159.88912821 33.17379919 163.22765274 34.65422069 166.63671875 36.25439453 C167.78914063 36.79322266 168.9415625 37.33205078 170.12890625 37.88720703 C170.99773437 38.29712891 171.8665625 38.70705078 172.76171875 39.12939453 C172.76171875 39.78939453 172.76171875 40.44939453 172.76171875 41.12939453 C173.49132812 41.40525391 174.2209375 41.68111328 174.97265625 41.96533203 C182.77582354 45.22211614 189.59657263 50.3404508 196.31640625 55.39501953 C198.42561838 56.89101024 200.45934023 57.983146 202.76171875 59.12939453 C204.42838542 60.7960612 206.09505208 62.46272786 207.76171875 64.12939453 C209.01767223 65.10714756 210.28980795 66.06433653 211.57421875 67.00439453 C217.78586439 71.56350803 223.31969814 76.68737392 228.76171875 82.12939453 C230.0490115 83.23865743 231.34110585 84.34236098 232.63671875 85.44189453 C236.17666665 88.50094385 239.22159357 91.79722006 242.24609375 95.35986328 C243.79379507 97.21284361 243.79379507 97.21284361 245.76171875 99.12939453 C258.47210716 111.83978294 269.19568688 127.17749732 278.19921875 142.66455078 C279.71970802 145.18156355 279.71970802 145.18156355 281.69921875 147.44970703 C284.2391045 150.74963435 285.96052853 154.20231406 287.76171875 157.94189453 C288.09171875 158.61542969 288.42171875 159.28896484 288.76171875 159.98291016 C289.43075335 161.34842023 290.0966691 162.71546263 290.75952148 164.08398438 C291.74763812 166.10065701 292.77132689 168.09640447 293.796875 170.09423828 C295.88134422 174.25452958 297.55902738 178.52829863 299.19921875 182.87939453 C301.1798767 188.07749416 303.20990393 193.22314446 305.44921875 198.31689453 C307.8658446 204.00868437 309.38727206 209.79280387 310.8671875 215.78173828 C311.65205067 219.00448269 311.65205067 219.00448269 312.72631836 221.48217773 C316.84167443 232.00394286 317.84944946 243.74956486 319.38671875 254.87939453 C319.71007794 257.20738825 320.03512976 259.53508729 320.36532593 261.86212158 C320.56868264 263.29607329 320.76807242 264.73059448 320.96304321 266.16571045 C321.19666627 269.43188329 321.19666627 269.43188329 322.76171875 272.12939453 C322.86059667 273.87321989 322.88970907 275.62104997 322.89111328 277.36767578 C322.89584152 279.04446411 322.89584152 279.04446411 322.90066528 280.75512695 C322.89864105 281.97176025 322.89661682 283.18839355 322.89453125 284.44189453 C322.89548798 285.68108643 322.8964447 286.92027832 322.89743042 288.19702148 C322.89811249 290.82327734 322.89675413 293.44944087 322.89208984 296.07568359 C322.88639256 299.44868167 322.88967177 302.82160018 322.89566231 306.19459534 C322.90013645 309.4020313 322.89700757 312.60945754 322.89453125 315.81689453 C322.89655548 317.03352783 322.89857971 318.25016113 322.90066528 319.50366211 C322.89751312 320.621521 322.89436096 321.73937988 322.89111328 322.89111328 C322.88991989 324.37550903 322.88991989 324.37550903 322.88870239 325.88989258 C322.76171875 328.12939453 322.76171875 328.12939453 321.76171875 329.12939453 C321.35251017 331.46549971 320.9977414 333.78867308 320.67578125 336.13720703 C320.52210587 337.21372025 320.52210587 337.21372025 320.36532593 338.3119812 C319.92711953 341.38257882 319.49846135 344.4544894 319.06933594 347.52636719 C317.95028625 355.50002925 316.79007037 363.46022114 315.28515625 371.37158203 C315.06520996 372.53286621 314.84526367 373.69415039 314.61865234 374.890625 C313.72300224 378.2757231 312.37880863 381.03408954 310.76171875 384.12939453 C310.04156185 386.19303044 310.04156185 386.19303044 309.5859375 388.16064453 C309.30858765 389.24188599 309.30858765 389.24188599 309.02563477 390.3449707 C308.83541748 391.09883057 308.6452002 391.85269043 308.44921875 392.62939453 C306.59179881 399.63832488 304.295775 406.06815113 301.30078125 412.68017578 C299.92123411 415.771902 298.67288523 418.87685421 297.45825195 422.03466797 C295.36954072 427.45497104 293.1926878 432.53565811 289.91796875 437.36376953 C288.28765086 439.85330901 287.03081914 442.48858618 285.75390625 445.17236328 C284.53873754 447.5692118 283.16126092 449.83522977 281.76171875 452.12939453 C281.18035156 453.10134766 280.59898437 454.07330078 280 455.07470703 C275.58422856 462.36565622 270.88913232 469.31068379 265.76171875 476.12939453 C265.23707031 476.83708984 264.71242188 477.54478516 264.171875 478.27392578 C251.23763 495.66825527 251.23763 495.66825527 244.39453125 502.48876953 C241.76007827 505.13103988 239.25580848 507.85471971 236.76171875 510.62939453 C232.08247435 515.83505392 227.41135638 520.75132296 221.88671875 525.06689453 C218.86846353 527.44477809 215.89939022 529.84466068 213.01171875 532.37939453 C210.09800839 534.91514718 206.98775874 537.0031409 203.76171875 539.12939453 C203.32601563 539.58314453 202.8903125 540.03689453 202.44140625 540.50439453 C200.20752262 542.66554706 197.73584426 544.23936658 195.13671875 545.94189453 C194.07066406 546.64314453 193.00460937 547.34439453 191.90625 548.06689453 C190.86855469 548.74751953 189.83085937 549.42814453 188.76171875 550.12939453 C187.11494899 551.23216411 185.46899906 552.33615987 183.82421875 553.44189453 C175.26972284 559.12939453 175.26972284 559.12939453 172.76171875 559.12939453 C172.76171875 559.78939453 172.76171875 560.44939453 172.76171875 561.12939453 C169.97300698 562.46897374 167.18028813 563.79997888 164.38671875 565.12939453 C163.195625 565.70173828 163.195625 565.70173828 161.98046875 566.28564453 C160.83964844 566.82705078 160.83964844 566.82705078 159.67578125 567.37939453 C158.97404785 567.71455078 158.27231445 568.04970703 157.54931641 568.39501953 C155.76171875 569.12939453 155.76171875 569.12939453 153.76171875 569.12939453 C153.76171875 569.78939453 153.76171875 570.44939453 153.76171875 571.12939453 C152.78730835 571.50692871 152.78730835 571.50692871 151.79321289 571.89208984 C148.80266403 573.0522601 145.81343896 574.21580546 142.82421875 575.37939453 C141.2918457 575.97300781 141.2918457 575.97300781 139.72851562 576.57861328 C135.1146718 578.37698052 130.53993076 580.19952702 126.0390625 582.26611328 C121.87279733 584.14898529 117.66378579 585.47908014 113.26171875 586.69189453 C111.85497998 587.08729513 110.44873 587.48443876 109.04296875 587.88330078 C108.33946289 588.08197754 107.63595703 588.2806543 106.91113281 588.48535156 C104.71428208 589.14360829 102.56456074 589.89301064 100.40234375 590.65673828 C95.35487071 592.3589573 90.2593401 593.26950533 85.01171875 594.12939453 C84.0254248 594.29673096 83.03913086 594.46406738 82.02294922 594.63647461 C74.08608297 595.96307775 66.12705871 597.12516218 58.14941406 598.17822266 C54.12533016 598.36906644 54.12533016 598.36906644 50.76171875 600.12939453 C49.0178934 600.22827245 47.27006332 600.25738485 45.5234375 600.25878906 C43.84664917 600.2635173 43.84664917 600.2635173 42.13598633 600.26834106 C40.91935303 600.26631683 39.70271973 600.2642926 38.44921875 600.26220703 C37.21002686 600.26316376 35.97083496 600.26412048 34.6940918 600.2651062 C32.06783594 600.26578827 29.44167242 600.26442991 26.81542969 600.25976562 C23.44243161 600.25406834 20.0695131 600.25734755 16.69651794 600.26333809 C13.48908198 600.26781223 10.28165575 600.26468335 7.07421875 600.26220703 C5.85758545 600.26423126 4.64095215 600.26625549 3.38745117 600.26834106 C2.26959229 600.2651889 1.1517334 600.26203674 0 600.25878906 C-0.98959717 600.25799347 -1.97919434 600.25719788 -2.9987793 600.25637817 C-5.23828125 600.12939453 -5.23828125 600.12939453 -6.23828125 599.12939453 C-8.58608934 598.72030243 -10.92110992 598.36554706 -13.28125 598.04345703 C-14.7636739 597.83253375 -16.2460957 597.62159573 -17.72851562 597.41064453 C-20.05571123 597.08466737 -22.38312548 596.76031958 -24.71069336 596.43701172 C-51.24961507 592.73297295 -51.24961507 592.73297295 -61.23828125 588.12939453 C-64.25419507 587.1773282 -67.3049688 586.37077931 -70.36328125 585.56689453 C-79.79391575 583.06599556 -79.79391575 583.06599556 -84.23828125 581.12939453 C-84.23828125 580.46939453 -84.23828125 579.80939453 -84.23828125 579.12939453 C-85.41390625 578.92314453 -86.58953125 578.71689453 -87.80078125 578.50439453 C-94.91285605 576.95432695 -101.54790467 573.93247721 -108.23828125 571.12939453 C-108.23828125 570.46939453 -108.23828125 569.80939453 -108.23828125 569.12939453 C-109.08648437 568.86384766 -109.9346875 568.59830078 -110.80859375 568.32470703 C-114.36569071 567.08498987 -117.70421524 565.60456837 -121.11328125 564.00439453 C-122.26570312 563.46556641 -123.418125 562.92673828 -124.60546875 562.37158203 C-125.90871094 561.75669922 -125.90871094 561.75669922 -127.23828125 561.12939453 C-127.23828125 560.46939453 -127.23828125 559.80939453 -127.23828125 559.12939453 C-127.96789062 558.85353516 -128.6975 558.57767578 -129.44921875 558.29345703 C-137.25238604 555.03667292 -144.07313513 549.91833826 -150.79296875 544.86376953 C-152.90218088 543.36777882 -154.93590273 542.27564307 -157.23828125 541.12939453 C-158.90494792 539.46272786 -160.57161458 537.7960612 -162.23828125 536.12939453 C-163.49423473 535.1516415 -164.76637045 534.19445253 -166.05078125 533.25439453 C-170.33492659 530.11161624 -174.27361271 526.66042745 -178.23828125 523.12939453 C-178.82230713 522.63205811 -179.40633301 522.13472168 -180.00805664 521.62231445 C-184.87930696 517.44737853 -189.3304743 513.03292637 -193.67578125 508.31689453 C-194.32538818 507.61693359 -194.97499512 506.91697266 -195.64428711 506.19580078 C-197.51354668 504.17784747 -199.37658078 502.15431972 -201.23828125 500.12939453 C-201.72071289 499.60812988 -202.20314453 499.08686523 -202.70019531 498.54980469 C-207.56037399 493.29590393 -212.06342387 487.94020111 -216.23828125 482.12939453 C-216.89957031 481.22833984 -217.56085938 480.32728516 -218.2421875 479.39892578 C-223.41008992 472.34659486 -228.23412127 465.22340493 -232.67578125 457.69189453 C-233.79454324 455.85712487 -234.96806834 454.05531272 -236.17578125 452.27783203 C-238.41408353 448.86102968 -240.34265851 445.36792538 -242.23828125 441.75439453 C-242.56828125 441.13306641 -242.89828125 440.51173828 -243.23828125 439.87158203 C-244.24806609 437.96245757 -245.2452325 436.04727284 -246.23828125 434.12939453 C-246.57480713 433.48550781 -246.91133301 432.84162109 -247.25805664 432.17822266 C-249.73242668 427.3568005 -251.76524082 422.44767181 -253.67578125 417.37939453 C-255.6564392 412.1812949 -257.68646643 407.0356446 -259.92578125 401.94189453 C-262.9849316 394.70933376 -266.23828125 386.01465848 -266.23828125 378.12939453 C-266.89828125 378.12939453 -267.55828125 378.12939453 -268.23828125 378.12939453 C-269.84345423 370.46900824 -271.18802028 362.77241664 -272.47045898 355.05200195 C-272.80089347 353.06622016 -273.13566693 351.08120135 -273.47070312 349.09619141 C-274.37752199 343.65801784 -275.27156111 338.24474053 -275.828125 332.75830078 C-275.8343592 329.32557719 -275.8343592 329.32557719 -277.23828125 328.12939453 C-277.33715917 326.38556918 -277.36627157 324.6377391 -277.36767578 322.89111328 C-277.37082794 321.77325439 -277.3739801 320.65539551 -277.37722778 319.50366211 C-277.37520355 318.28702881 -277.37317932 317.07039551 -277.37109375 315.81689453 C-277.37205048 314.57770264 -277.3730072 313.33851074 -277.37399292 312.06176758 C-277.37467499 309.43551173 -277.37331663 306.8093482 -277.36865234 304.18310547 C-277.36295506 300.81010739 -277.36623427 297.43718888 -277.37222481 294.06419373 C-277.37669895 290.85675777 -277.37357007 287.64933153 -277.37109375 284.44189453 C-277.37311798 283.22526123 -277.37514221 282.00862793 -277.37722778 280.75512695 C-277.37407562 279.63726807 -277.37092346 278.51940918 -277.36767578 277.36767578 C-277.36688019 276.37807861 -277.36608459 275.38848145 -277.36526489 274.36889648 C-277.23828125 272.12939453 -277.23828125 272.12939453 -276.23828125 271.12939453 C-275.81719306 268.74658666 -275.45040637 266.37645271 -275.1171875 263.98095703 C-275.01236557 263.25379486 -274.90754364 262.52663269 -274.79954529 261.7774353 C-274.46268492 259.43696616 -274.1313801 257.09575568 -273.80078125 254.75439453 C-269.89919734 227.30777542 -269.89919734 227.30777542 -266.3671875 219.10986328 C-264.91119046 215.26582956 -263.90549215 211.35204752 -262.86328125 207.37939453 C-261.02017896 200.45955193 -258.73591119 194.11021986 -255.77734375 187.57861328 C-254.39794112 184.48721094 -253.14965284 181.38264079 -251.93530273 178.22509766 C-249.8787176 172.88895005 -247.74736437 167.8975649 -244.51953125 163.14892578 C-242.88193948 160.56772168 -241.57903776 157.8758932 -240.23828125 155.12939453 C-236.49594176 147.53044564 -232.02034363 140.74541841 -227.12890625 133.84423828 C-225.08711471 130.91232687 -223.1316613 127.93170354 -221.17578125 124.94189453 C-218.13322117 120.36050119 -214.94408943 116.18262223 -211.23828125 112.12939453 C-206.21361097 106.53481198 -206.21361097 106.53481198 -201.73828125 100.50439453 C-199.51444126 97.27505593 -196.89322097 94.9935643 -193.86328125 92.53173828 C-191.67214975 90.64083393 -190.0359132 88.3909315 -188.23828125 86.12939453 C-186.25567699 84.44207176 -184.25504705 82.77573396 -182.23828125 81.12939453 C-181.49578125 80.38689453 -180.75328125 79.64439453 -179.98828125 78.87939453 C-173.82639365 72.71750693 -167.56935507 67.0245438 -160.1484375 62.41845703 C-158.23131804 61.21676667 -158.23131804 61.21676667 -156.8359375 59.70361328 C-154.64478593 57.54460574 -152.18485099 56.00137238 -149.61328125 54.31689453 C-148.54722656 53.61564453 -147.48117188 52.91439453 -146.3828125 52.19189453 C-144.82626953 51.17095703 -144.82626953 51.17095703 -143.23828125 50.12939453 C-141.59151149 49.02662495 -139.94556156 47.92262919 -138.30078125 46.81689453 C-129.74628534 41.12939453 -129.74628534 41.12939453 -127.23828125 41.12939453 C-127.23828125 40.46939453 -127.23828125 39.80939453 -127.23828125 39.12939453 C-124.44956948 37.78981532 -121.65685063 36.45881018 -118.86328125 35.12939453 C-118.06921875 34.74783203 -117.27515625 34.36626953 -116.45703125 33.97314453 C-115.69648438 33.61220703 -114.9359375 33.25126953 -114.15234375 32.87939453 C-113.45061035 32.54423828 -112.74887695 32.20908203 -112.02587891 31.86376953 C-110.23828125 31.12939453 -110.23828125 31.12939453 -108.23828125 31.12939453 C-108.23828125 30.46939453 -108.23828125 29.80939453 -108.23828125 29.12939453 C-107.58867432 28.87770508 -106.93906738 28.62601563 -106.26977539 28.36669922 C-103.27922653 27.20652896 -100.29000146 26.04298361 -97.30078125 24.87939453 C-96.27919922 24.48365234 -95.25761719 24.08791016 -94.20507812 23.68017578 C-89.63384447 21.89841698 -85.10565211 20.09683861 -80.65625 18.02783203 C-75.74763032 15.80857115 -70.67993068 14.40414024 -65.48828125 13.00439453 C-63.65948639 12.50423324 -61.83133716 12.00170403 -60.00390625 11.49658203 C-59.20758789 11.28114746 -58.41126953 11.06571289 -57.59082031 10.84375 C-55.21387448 10.16965644 -55.21387448 10.16965644 -52.9296875 9.13598633 C-49.49166256 7.85015752 -46.01590455 7.25360512 -42.41015625 6.65673828 C-41.66171448 6.52876358 -40.91327271 6.40078888 -40.14215088 6.26893616 C-38.56249799 5.99998407 -36.98238626 5.73371473 -35.40185547 5.4699707 C-33.00899103 5.07035314 -30.61771996 4.66213591 -28.2265625 4.25244141 C-15.61324531 2.10962767 -15.61324531 2.10962767 -9.69140625 1.50830078 C-5.92533082 1.09505495 -3.97481498 0.00319558 0 0 Z M-42.13330078 52.51513672 C-44.23000704 53.12698002 -46.33334565 53.67384726 -48.453125 54.19970703 C-54.31367915 55.65563977 -59.75989972 57.12529795 -65.05078125 60.07861328 C-68.02283822 61.50626208 -71.09114694 62.39919333 -74.23828125 63.37939453 C-85.90368129 67.0731927 -96.67209505 73.02448695 -107.23828125 79.12939453 C-107.23828125 79.78939453 -107.23828125 80.44939453 -107.23828125 81.12939453 C-108.04265625 81.33564453 -108.84703125 81.54189453 -109.67578125 81.75439453 C-114.38094676 83.57042332 -118.14138955 86.21963366 -122.23828125 89.12939453 C-123.10839844 89.74169922 -123.97851562 90.35400391 -124.875 90.98486328 C-137.47944905 99.99317851 -149.29221477 109.98255687 -160.23828125 120.94189453 C-160.93888672 121.64330566 -161.63949219 122.3447168 -162.36132812 123.06738281 C-167.38531555 128.15106813 -171.93967542 133.41728318 -176.23828125 139.12939453 C-177.65118121 140.88243707 -179.06788964 142.63241653 -180.48828125 144.37939453 C-183.26977336 147.8589654 -185.83944446 151.3712169 -188.23828125 155.12939453 C-188.66367188 155.74685547 -189.0890625 156.36431641 -189.52734375 157.00048828 C-193.77024289 163.18332258 -197.51896082 169.62536254 -201.15429688 176.17871094 C-201.88500608 177.49365835 -202.62080171 178.8057905 -203.36132812 180.11523438 C-209.19245334 190.45426793 -213.66578664 200.89135689 -217.52880859 212.10986328 C-218.4046427 214.60294645 -219.38802781 217.0487763 -220.36328125 219.50439453 C-223.23881428 227.36253221 -224.81571412 235.65927191 -226.67529297 243.80249023 C-227.14650494 245.75007103 -227.70560755 247.67610508 -228.28515625 249.59423828 C-237.29251649 283.00268507 -234.91542022 325.98472588 -226.23828125 359.12939453 C-225.77084396 361.03240519 -225.30595734 362.93604436 -224.84375 364.84033203 C-222.12388971 375.80066475 -219.02504158 385.88187601 -214.23828125 396.12939453 C-213.6012717 397.74972438 -212.97548689 399.37453127 -212.36328125 401.00439453 C-206.21697801 416.49714236 -197.69364885 431.44988341 -188.23828125 445.12939453 C-187.44434005 446.31537502 -186.65239918 447.50269932 -185.86328125 448.69189453 C-185.32703125 449.49626953 -184.79078125 450.30064453 -184.23828125 451.12939453 C-181.35303234 449.68677008 -181.19553411 447.86434738 -180.05078125 444.87939453 C-172.56646192 426.51469189 -161.23939486 410.13050814 -147.23828125 396.12939453 C-146.36151515 395.02662972 -145.48666075 393.92234344 -144.61328125 392.81689453 C-141.15842633 388.67106862 -136.87327926 385.84167985 -132.43359375 382.82861328 C-131.70914063 382.26787109 -130.9846875 381.70712891 -130.23828125 381.12939453 C-130.23828125 380.46939453 -130.23828125 379.80939453 -130.23828125 379.12939453 C-129.52285156 378.86126953 -128.80742187 378.59314453 -128.0703125 378.31689453 C-125.19699186 377.11208146 -122.60490499 375.71702341 -119.92578125 374.12939453 C-119.04277344 373.61376953 -118.15976563 373.09814453 -117.25 372.56689453 C-116.58613281 372.09251953 -115.92226562 371.61814453 -115.23828125 371.12939453 C-115.23828125 370.46939453 -115.23828125 369.80939453 -115.23828125 369.12939453 C-114.41972656 368.88576172 -113.60117188 368.64212891 -112.7578125 368.39111328 C-110.12200707 367.4462019 -107.84346025 366.47927542 -105.375 365.21142578 C-93.28223329 359.00926794 -81.0546462 355.11904673 -67.89306641 351.80175781 C-66.29417532 351.39681519 -64.69864887 350.97767324 -63.11083984 350.53125 C-53.17768615 347.79011315 -42.81843395 347.98034472 -32.59130859 347.98413086 C-31.25767932 347.98113079 -29.9240509 347.97772634 -28.59042358 347.97395325 C-24.99913425 347.96519352 -21.4078688 347.9627785 -17.81656981 347.96213746 C-15.56286725 347.96142218 -13.30917059 347.95927886 -11.05546951 347.95664024 C-3.16441722 347.94741213 4.72661828 347.94330202 12.61767578 347.9440918 C19.92653305 347.94469134 27.23531622 347.9341573 34.54415476 347.91834813 C40.85712004 347.90518885 47.17006136 347.89991141 53.48304021 347.90054721 C57.23654952 347.90079982 60.9899929 347.89808199 64.74348831 347.88736916 C103.77319952 347.78378253 103.77319952 347.78378253 115.72998047 352.36621094 C118.01582279 353.22484385 120.30781735 353.84372576 122.671875 354.45361328 C132.89848058 357.14239073 142.1187287 360.33250602 151.4140625 365.39501953 C154.49569797 366.9915728 157.44361066 368.13649501 160.76171875 369.12939453 C160.76171875 369.78939453 160.76171875 370.44939453 160.76171875 371.12939453 C162.86190889 372.60248564 164.93939604 373.94249089 167.13671875 375.25439453 C167.74 375.62693359 168.34328125 375.99947266 168.96484375 376.38330078 C172.13517652 378.45667693 172.13517652 378.45667693 175.76171875 379.12939453 C176.09171875 380.11939453 176.42171875 381.10939453 176.76171875 382.12939453 C178.84846011 383.75186684 178.84846011 383.75186684 181.38671875 385.31689453 C185.64230518 388.18835299 188.8776828 391.15226001 192.09375 395.13720703 C193.80876037 397.25012561 193.80876037 397.25012561 196.12890625 399.46142578 C199.01620163 402.38727555 201.55043285 405.45391462 204.07421875 408.69189453 C204.55060791 409.30178223 205.02699707 409.91166992 205.51782227 410.54003906 C211.74764288 418.60043794 217.46839119 426.86280065 221.76171875 436.12939453 C222.44613773 437.48512101 223.13368353 438.83927311 223.82421875 440.19189453 C225.62215804 443.78066663 227.2180542 447.4245996 228.76171875 451.12939453 C229.33921875 450.40751953 229.91671875 449.68564453 230.51171875 448.94189453 C231.85145187 447.26722814 233.21779215 445.61251134 234.63671875 444.00439453 C237.23026506 440.49547894 239.16112613 436.77602301 241.203125 432.92626953 C242.54335652 430.52124255 243.96600891 428.35683198 245.57421875 426.12939453 C253.06542637 415.13835763 258.04514518 402.14629939 262.49609375 389.67236328 C263.2437687 387.57933495 264.01543475 385.49418528 264.83984375 383.43017578 C268.28617209 374.71862359 270.11849524 365.56578594 272.19873047 356.45629883 C272.66994244 354.50871803 273.22904505 352.58268399 273.80859375 350.66455078 C282.81218475 317.27008417 280.45555121 274.25871354 271.76171875 241.12939453 C271.27135517 239.15595245 270.78305364 237.18199678 270.296875 235.20751953 C269.80660736 233.2646552 269.31572345 231.32194628 268.82421875 229.37939453 C268.46553711 227.91566406 268.46553711 227.91566406 268.09960938 226.42236328 C266.77515755 221.22939387 265.20828502 216.65658582 262.67456055 211.93554688 C261.2797184 209.17570675 260.49696116 206.28032803 259.63671875 203.31689453 C255.50315705 190.05711041 248.04975669 177.8735471 240.76171875 166.12939453 C239.71936544 164.35896529 238.67770634 162.58812715 237.63671875 160.81689453 C235.55779711 157.3538204 233.36779641 154.22411176 230.76171875 151.12939453 C229.83949464 149.90439202 228.92346628 148.67471444 228.01171875 147.44189453 C215.30378621 130.48742094 200.88886583 113.41472409 183.3359375 101.30517578 C181.76171875 100.12939453 181.76171875 100.12939453 179.38671875 97.69189453 C176.51552961 94.88906704 173.52707941 92.84571246 170.1640625 90.68017578 C168.55539021 89.64173204 166.96396757 88.57609429 165.390625 87.48486328 C161.28370651 84.63841556 157.67116364 82.38822655 152.76171875 81.12939453 C152.76171875 80.46939453 152.76171875 79.80939453 152.76171875 79.12939453 C151.76914062 78.63310547 150.7765625 78.13681641 149.75390625 77.62548828 C149.10389648 77.30032227 148.45388672 76.97515625 147.78417969 76.64013672 C146.33743296 75.91709231 144.89015589 75.19510822 143.44238281 74.47412109 C139.95003317 72.73328626 136.46470795 70.98302498 133.00390625 69.18017578 C126.70457249 65.93186162 120.57596096 63.16485609 113.7734375 61.14892578 C111.27626521 60.30357952 109.06947847 59.34101739 106.69921875 58.21142578 C101.0246884 55.64275465 95.13261305 54.35866599 89.07421875 53.00439453 C86.88226517 52.50418277 84.6908393 52.0016518 82.5 51.49658203 C80.97125244 51.14490967 80.97125244 51.14490967 79.41162109 50.78613281 C76.76171875 50.12939453 76.76171875 50.12939453 73.6953125 49.05126953 C39.88370973 38.42605215 -8.83648063 42.50710731 -42.13330078 52.51513672 Z M-59.61816406 394.34960938 C-61.16786959 394.64082389 -61.16786959 394.64082389 -62.74888229 394.93792152 C-69.51480975 396.37639987 -75.1930433 398.81046023 -81.23828125 402.12939453 C-82.58171688 402.80837732 -83.92755304 403.48266611 -85.27734375 404.14892578 C-85.87675781 404.44863281 -86.47617188 404.74833984 -87.09375 405.05712891 C-91.16601562 407.09326172 -91.16601562 407.09326172 -95.23828125 409.12939453 C-95.23828125 409.78939453 -95.23828125 410.44939453 -95.23828125 411.12939453 C-96.47578125 411.43876953 -96.47578125 411.43876953 -97.73828125 411.75439453 C-106.85383431 415.33550466 -113.29288494 423.01742571 -119.80078125 430.06689453 C-120.26935547 430.56640625 -120.73792969 431.06591797 -121.22070312 431.58056641 C-124.27936277 434.89589679 -126.79833007 438.31912733 -129.23828125 442.12939453 C-129.94726562 443.14775391 -130.65625 444.16611328 -131.38671875 445.21533203 C-139.58577022 457.32691333 -148.34920841 474.74252784 -148.21484375 489.74658203 C-146.78269361 493.24102836 -144.16242419 494.94891978 -141.17578125 497.06689453 C-140.58450439 497.50291992 -139.99322754 497.93894531 -139.3840332 498.38818359 C-138.20739147 499.25462417 -137.02671908 500.11562161 -135.84179688 500.97070312 C-133.84778008 502.41156849 -131.88627217 503.89334242 -129.92578125 505.37939453 C-129.30960938 505.83701172 -128.6934375 506.29462891 -128.05859375 506.76611328 C-126.79329728 507.71372802 -125.53875856 508.67580884 -124.29296875 509.64892578 C-116.48267532 516.15701511 -116.48267532 516.15701511 -107.23828125 519.12939453 C-107.23828125 519.78939453 -107.23828125 520.44939453 -107.23828125 521.12939453 C-106.24570313 521.62568359 -105.253125 522.12197266 -104.23046875 522.63330078 C-103.2554541 523.1210498 -103.2554541 523.1210498 -102.26074219 523.61865234 C-100.81399546 524.34169675 -99.36671839 525.06368084 -97.91894531 525.78466797 C-94.42659567 527.52550281 -90.94127045 529.27576408 -87.48046875 531.07861328 C-81.18113499 534.32692744 -75.05252346 537.09393297 -68.25 539.10986328 C-65.75282771 539.95520954 -63.54604097 540.91777167 -61.17578125 542.04736328 C-55.5012509 544.61603441 -49.60917555 545.90012307 -43.55078125 547.25439453 C-41.35882767 547.75460629 -39.1674018 548.25713726 -36.9765625 548.76220703 C-35.95739746 548.99665527 -34.93823242 549.23110352 -33.88818359 549.47265625 C-31.23828125 550.12939453 -31.23828125 550.12939453 -28.171875 551.20751953 C5.15352313 561.67994824 54.0004203 558.0828594 86.72509766 547.73925781 C89.4856598 546.91261142 92.2761872 546.26085891 95.08203125 545.60791016 C101.62038125 544.08519556 107.73426634 542.12362 113.87890625 539.38720703 C116.74228444 538.137874 119.62862075 537.10516015 122.57421875 536.06689453 C133.0800924 532.10144222 142.88458571 526.42935045 152.76171875 521.12939453 C152.76171875 520.46939453 152.76171875 519.80939453 152.76171875 519.12939453 C153.96828125 518.82001953 153.96828125 518.82001953 155.19921875 518.50439453 C159.90438426 516.68836574 163.66482705 514.03915541 167.76171875 511.12939453 C169.06689453 510.2109375 169.06689453 510.2109375 170.3984375 509.27392578 C176.23684195 505.10125727 181.83574433 500.69960888 187.3515625 496.10986328 C189.76171875 494.12939453 189.76171875 494.12939453 192.078125 492.61767578 C192.63371094 492.12654297 193.18929688 491.63541016 193.76171875 491.12939453 C193.76171875 489.80939453 193.76171875 488.48939453 193.76171875 487.12939453 C193.10171875 487.12939453 192.44171875 487.12939453 191.76171875 487.12939453 C191.72433594 486.43974609 191.68695313 485.75009766 191.6484375 485.03955078 C191.19768192 478.59639748 190.12951076 473.12317766 187.76171875 467.12939453 C187.42269531 466.21544922 187.08367187 465.30150391 186.734375 464.35986328 C178.85404817 444.11511792 162.65280545 421.07493788 142.76171875 411.12939453 C142.10171875 411.12939453 141.44171875 411.12939453 140.76171875 411.12939453 C140.76171875 410.46939453 140.76171875 409.80939453 140.76171875 409.12939453 C139.86710937 408.68208984 138.9725 408.23478516 138.05078125 407.77392578 C137.47118652 407.48364502 136.8915918 407.19336426 136.29443359 406.89428711 C135.00724871 406.25168303 133.71846779 405.61226737 132.42822266 404.97583008 C129.67300254 403.61260938 126.9619247 402.24671267 124.30859375 400.69189453 C115.9078264 395.85692052 106.19689631 394.73513282 96.76171875 393.12939453 C95.84083843 392.95929052 94.91995811 392.78918652 93.97117233 392.61392784 C90.94255692 392.15669579 88.11130973 391.99318518 85.05206299 391.97549438 C83.37956482 391.96259369 83.37956482 391.96259369 81.67327881 391.94943237 C80.46399719 391.94517242 79.25471558 391.94091248 78.00878906 391.93652344 C76.72319092 391.92834595 75.43759277 391.92016846 74.11303711 391.91174316 C69.85532704 391.88561259 65.59760774 391.87020322 61.33984375 391.85595703 C59.86259711 391.85058968 58.38535051 391.84521216 56.90810394 391.83982468 C50.74522881 391.81819022 44.58235614 391.79946911 38.41945267 391.78820229 C29.65854395 391.77207071 20.89808629 391.73916651 12.13734746 391.68180144 C5.94239212 391.64266084 -0.25244503 391.62351718 -6.44752049 391.61828172 C-10.12723515 391.6146816 -13.80646814 391.60325293 -17.48604584 391.57017899 C-31.69311677 391.44903498 -45.60413087 391.71237387 -59.61816406 394.34960938 Z " fill="#17B175" transform="translate(277.23828125,-0.12939453125)"/>
<path d="M0 0 C1.4357215 0.64977745 2.87288349 1.29639841 4.3125 1.9375 C11.41219898 5.53385407 17.56303483 11.26914482 23 17 C23.52980469 17.49757812 24.05960938 17.99515625 24.60546875 18.5078125 C37.50551102 30.75288573 44.40208927 46.84073346 48 64 C48.33 64.33 48.66 64.66 49 65 C50.98817322 77.81267187 51.21009865 91.6616452 47 104 C46.57460938 105.48886719 46.57460938 105.48886719 46.140625 107.0078125 C40.84437298 125.54469456 30.34162659 143.21452645 14 154 C13.54109375 154.47308594 13.0821875 154.94617188 12.609375 155.43359375 C10.62083324 157.36904338 8.49821025 158.6895324 6.125 160.125 C5.28195312 160.64320313 4.43890625 161.16140625 3.5703125 161.6953125 C1.00531367 162.99730279 -1.16752888 163.58375872 -4 164 C-4 164.66 -4 165.32 -4 166 C-29.06630857 174.62992489 -55.04228019 175.81371418 -80 166 C-80 165.34 -80 164.68 -80 164 C-80.94875 163.79375 -81.8975 163.5875 -82.875 163.375 C-90.38764947 161.2219846 -96.75058725 156.68686381 -102 151 C-103.423125 149.8553125 -103.423125 149.8553125 -104.875 148.6875 C-117.58913352 138.18452014 -125.59467534 122.66435585 -130.10546875 107.078125 C-130.71258827 104.98899758 -131.37092163 102.91421124 -132.07421875 100.85546875 C-136.11640044 88.38781131 -135.49553226 71.23783783 -131 59 C-130.53624013 57.41824759 -130.0784839 55.83472907 -129.625 54.25 C-126.71182377 44.61632812 -122.98348183 37.11439163 -117 29 C-116.34 27.948125 -115.68 26.89625 -115 25.8125 C-112.37330536 22.11871066 -109.25578942 19.13395115 -106 16 C-105.23429687 15.2059375 -104.46859375 14.411875 -103.6796875 13.59375 C-94.75013369 4.95056672 -84.5805877 -0.69659642 -73 -5 C-72.22398437 -5.31582031 -71.44796875 -5.63164062 -70.6484375 -5.95703125 C-48.23212234 -14.47858926 -20.71564815 -11.17248439 0 0 Z M-49 34 C-49 34.66 -49 35.32 -49 36 C-50.85625 36.061875 -50.85625 36.061875 -52.75 36.125 C-62.87483957 37.28712781 -72.45412757 43.3368358 -79 51 C-88.14379834 63.8377819 -90.38920537 75.91016351 -88.72265625 91.61328125 C-86.5969399 103.01116988 -79.75882436 112.6184021 -71 120 C-67.15171648 122.49525645 -63.25867336 124.31894473 -59 126 C-58.27554688 126.33644531 -57.55109375 126.67289062 -56.8046875 127.01953125 C-48.26406541 130.57541763 -35.84611019 130.60863046 -27.27734375 127.10546875 C-26.15005859 126.55826172 -26.15005859 126.55826172 -25 126 C-23.42412109 125.25169922 -23.42412109 125.25169922 -21.81640625 124.48828125 C-15.18961489 121.14103703 -9.74286646 117.74203033 -5 112 C-4.00226563 110.84177734 -4.00226563 110.84177734 -2.984375 109.66015625 C-0.90564501 106.87351231 0.37647337 104.27596274 1.6875 101.0625 C2.10386719 100.06347656 2.52023437 99.06445312 2.94921875 98.03515625 C7.1120265 86.01098665 5.95477487 72.56114135 1 61 C-4.84291251 49.0601353 -13.97721777 41.72000863 -26.17578125 36.77734375 C-29.23411409 35.93556196 -31.84280886 35.85543142 -35 36 C-35 35.34 -35 34.68 -35 34 C-39.62 34 -44.24 34 -49 34 Z " fill="#17B175" transform="translate(342,135)"/>
</svg>
